<svg xmlns="http://www.w3.org/2000/svg" viewBox="0 0 100 100" fill="none">
  <!-- Background circle -->
  <circle cx="50" cy="50" r="45" fill="#1A1A1A" stroke="#FFC700" stroke-width="2"/>
  
  <!-- Book icon -->
  <path d="M25 30h20c2.209 0 4 1.791 4 4v30c0 2.209-1.791 4-4 4H25c-2.209 0-4-1.791-4-4V34c0-2.209 1.791-4 4-4z" 
        fill="#FFC700" opacity="0.8"/>
  <path d="M29 34h16c1.657 0 3 1.343 3 3v28c0 1.657-1.343 3-3 3H29c-1.657 0-3-1.343-3-3V37c0-1.657 1.343-3 3-3z" 
        fill="#1A1A1A"/>
  
  <!-- Page lines -->
  <line x1="32" y1="42" x2="42" y2="42" stroke="#FFC700" stroke-width="1" opacity="0.8"/>
  <line x1="32" y1="47" x2="40" y2="47" stroke="#FFC700" stroke-width="1" opacity="0.8"/>
  <line x1="32" y1="52" x2="38" y2="52" stroke="#FFC700" stroke-width="1" opacity="0.8"/>
  
  <!-- Headphones -->
  <path d="M30 25c-8.837 0-16 7.163-16 16v4c0 1.105.895 2 2 2h2v-6h12v6h2c1.105 0 2-.895 2-2v-4c0-8.837-7.163-16-16-16z" 
        fill="#FFC700"/>
  <path d="M86 41v-4c0-8.837-7.163-16-16-16s-16 7.163-16 16v4c0 1.105.895 2 2 2h2v-6h12v6h2c1.105 0 2-.895 2-2z" 
        fill="#FFC700"/>
  
  <!-- Sound waves -->
  <path d="M70 35c0 3.314-2.686 6-6 6s-6-2.686-6-6" stroke="#FFC700" stroke-width="2" fill="none" opacity="0.7"/>
  <path d="M70 41c0 3.314-2.686 6-6 6s-6-2.686-6-6" stroke="#FFC700" stroke-width="2" fill="none" opacity="0.7"/>
  <path d="M70 47c0 3.314-2.686 6-6 6s-6-2.686-6-6" stroke="#FFC700" stroke-width="2" fill="none" opacity="0.7"/>
  
  <!-- Play button -->
  <polygon points="45,40 45,45 50,42.5" fill="#FFC700"/>
</svg>